<svg width="290" height="290" viewBox="0 0 290 290" fill="none" xmlns="http://www.w3.org/2000/svg">
<path d="M237.522 1.56836C240.351 0.840261 246.811 0.391649 252.888 0.522461C257.493 0.621052 260.255 0.76402 262.485 1.17969C264.698 1.59195 266.402 2.27625 268.886 3.49219H268.887C272.15 5.0897 275.79 7.87369 277.548 10.0938C278.423 11.199 279.374 12.2079 280.206 12.9453C280.621 13.3133 281.016 13.6219 281.364 13.8418C281.538 13.9517 281.709 14.0452 281.872 14.1123C282.029 14.177 282.209 14.2304 282.393 14.2305C282.445 14.2305 282.602 14.2663 282.876 14.4141C283.133 14.5525 283.442 14.7607 283.782 15.0283C284.463 15.563 285.235 16.3078 285.927 17.1299C287.218 18.664 288.065 20.927 288.365 23.4023C288.665 25.8733 288.412 28.5072 287.554 30.7559C286.494 33.533 285.689 36.5985 285.276 39.1064C285.071 40.359 284.96 41.4884 284.97 42.3809C284.974 42.8263 285.009 43.2291 285.083 43.5654C285.154 43.8883 285.277 44.2164 285.506 44.4453C285.584 44.5239 285.69 44.6844 285.804 44.9453C285.914 45.1984 286.018 45.5151 286.107 45.877C286.286 46.6018 286.398 47.4725 286.398 48.3047C286.398 50.1257 287.09 53.5266 287.927 55.8975C289.039 59.0497 289.494 61.3655 289.333 63.125C289.176 64.8415 288.432 66.0526 287.044 67.0244C285.597 68.0369 282.514 70.7399 280.181 73.0332C278.547 74.6379 277.267 75.6793 275.962 76.3896C274.664 77.0961 273.316 77.4894 271.525 77.7578H271.524C268.082 78.274 261.768 78.3168 256.11 78.0439C253.287 77.9078 250.643 77.6939 248.62 77.4248C247.607 77.2901 246.761 77.1426 246.129 76.9873C245.813 76.9096 245.561 76.8323 245.374 76.7578C245.174 76.6782 245.094 76.6204 245.077 76.6035C244.794 76.3201 244.531 76.0753 244.289 75.8848C244.052 75.6985 243.807 75.5401 243.56 75.457C243.3 75.3699 242.991 75.3538 242.708 75.5303C242.448 75.6924 242.302 75.9617 242.212 76.2246C242.032 76.7464 241.97 77.5566 241.971 78.6348C241.971 79.733 242.039 81.1776 242.154 83.0117C242.724 92.0738 240.9 97.5086 228.822 122.002C223.945 131.891 219.818 140.279 219.655 140.629V140.63C219.522 140.919 219.652 141.173 219.764 141.302C219.866 141.42 220.003 141.504 220.117 141.563C220.357 141.689 220.695 141.804 221.082 141.909C221.868 142.122 222.973 142.321 224.212 142.46C229.172 143.019 232.555 144.965 234.718 148.696C236.907 152.473 237.886 158.141 237.838 166.228C237.745 181.927 231.97 197.762 221.11 212.017L215.769 219.027L215.373 219.547L215.978 219.794L221.366 221.993C222.861 222.603 224.416 223.159 225.721 223.563C226.373 223.765 226.967 223.931 227.462 224.047C227.945 224.16 228.371 224.234 228.67 224.234C229.244 224.236 230.018 224.441 230.902 224.822C231.777 225.199 232.722 225.732 233.627 226.351C234.532 226.969 235.387 227.667 236.087 228.366C236.704 228.983 237.18 229.584 237.47 230.119L237.582 230.344C237.929 231.105 238.82 232.122 239.905 233.134C240.871 234.034 242.039 234.974 243.231 235.788L243.744 236.129C246.291 237.779 248.04 239.586 248.849 241.141C249.252 241.917 249.402 242.593 249.341 243.14C249.282 243.666 249.023 244.115 248.504 244.465C248.504 244.465 248.479 244.481 248.411 244.504C248.347 244.526 248.259 244.55 248.146 244.574C247.92 244.623 247.616 244.669 247.238 244.709C246.483 244.789 245.465 244.842 244.234 244.868C241.775 244.919 238.501 244.857 234.856 244.671C229.004 244.371 225.686 244.252 222.873 244.516C220.045 244.781 217.738 245.433 213.909 246.643C208.084 248.483 202.033 249.977 196.921 250.913C194.365 251.381 192.049 251.709 190.117 251.87C188.175 252.033 186.657 252.023 185.679 251.84C184.747 251.665 183.65 251.313 182.638 250.884C181.62 250.452 180.725 249.958 180.179 249.516V249.515L179.805 249.216C178.958 248.551 178.265 248.132 177.266 248.224C176.73 248.273 176.135 248.465 175.405 248.772C174.672 249.082 173.762 249.526 172.593 250.104C169.78 251.496 167.123 252.095 164.272 251.9C161.412 251.705 158.321 250.707 154.648 248.848H154.649L150.036 246.512L149.172 246.074L149.315 247.032L149.959 251.322C151.613 262.351 144.206 273.469 130.339 280.283C123.389 283.698 118.068 285.771 111.979 287.003C105.883 288.237 98.9932 288.633 88.8965 288.662C70.6932 288.715 64.3752 287.956 46.0391 283.52C27.0358 278.921 15.4377 273.658 8.26465 266.486C5.11783 263.34 3.068 260.277 1.86816 256.644C0.665593 253.002 0.304854 248.749 0.595703 243.201C0.779785 239.693 1.02668 237.37 1.59863 235.163C2.17041 232.957 3.0733 230.844 4.59668 227.762C11.4387 213.918 25.8548 202.778 40.2891 200.156C48.3649 198.689 57.4172 200.964 64.4551 205.22C71.5137 209.488 76.3983 215.65 76.3984 221.854C76.3984 223.878 75.9706 225.375 75.002 226.61C74.0217 227.86 72.4437 228.898 70.0273 229.908C68.397 230.589 67.1416 231.041 66.0977 231.222C65.071 231.4 64.2802 231.31 63.5547 230.934C62.8116 230.548 62.0818 229.834 61.2412 228.65C60.4021 227.469 59.4825 225.864 58.3418 223.744C55.7583 218.944 54.1313 216.14 52.5508 214.369C50.9319 212.555 49.3657 211.831 46.9902 211.119C45.3298 210.621 44.1424 210.394 42.7207 210.616C41.3314 210.833 39.7506 211.476 37.2842 212.604C33.6697 214.259 29.6535 217.282 26.1406 220.753C22.8476 224.007 19.9617 227.689 18.251 231.063L17.9248 231.733C13.9937 240.178 14.9381 248.143 20.0723 254.633C25.1815 261.091 34.3932 266.032 46.8975 268.609C55.7527 270.435 68.9195 271.422 81.4219 271.534C93.9116 271.646 105.819 270.885 112.134 269.185C124.472 265.862 132.437 258.288 132.376 249.412C132.354 246.198 131.365 243.151 128.812 239.31C126.27 235.483 122.156 230.841 115.855 224.422C104.728 213.085 98.4025 205.446 94.832 196.666C91.2613 187.886 90.4261 177.914 90.4131 161.858C90.3956 140.564 92.5454 124.22 97.4688 111.116C102.387 98.0268 110.081 88.1461 121.199 79.7891C124.144 77.5754 135.018 70.7369 146.218 63.9121C157.413 57.0901 168.874 50.318 172.98 48.2363C178.378 45.4999 188.713 43.2709 196.194 43.248L201.99 43.2305L202.591 43.2285L202.48 42.6387L201.816 39.0986C201.16 35.6035 201.988 31.6019 203.618 28.4727C204.431 26.9112 205.433 25.5894 206.523 24.6641C207.615 23.738 208.767 23.2305 209.897 23.2305C210.697 23.2303 211.407 22.6862 212.014 21.9004C212.634 21.0972 213.229 19.9368 213.788 18.4727C216.648 10.9832 225.339 4.70529 237.522 1.56836Z" stroke="white"/>
</svg>
